<svg id="Layer_1" data-name="Layer 1" xmlns="http://www.w3.org/2000/svg" width="491" height="107" viewBox="0 0 491 107"><defs><style>.cls-1{fill:#fff;}.cls-2{fill:#3bb3b6;}</style></defs><title>evonove-logo-white</title><g id="g366"><path id="path368" class="cls-1" d="M435,73v6a28,28,0,0,0,56,0V28a27,27,0,0,0-8-20,28,28,0,0,0-40,0,27,27,0,0,0-8,20v7a27,27,0,0,0,8,20,27,27,0,0,0,20,8h5l-7-20-4-2a9,9,0,0,1-2-6V28a8,8,0,0,1,2-6,8,8,0,0,1,12,0,8,8,0,0,1,2,6V79a8,8,0,0,1-2,6,9,9,0,0,1-12,0,8,8,0,0,1-2-6V73H435Z"/></g><g id="g370"><path id="path372" class="cls-1" d="M381,107h20L419,0H399l-7,52h-2L382,0H363Z"/></g><g id="g374"><path id="path376" class="cls-2" d="M254,107h20V28a27,27,0,0,0-8-20,28,28,0,0,0-40,0,27,27,0,0,0-8,20v79h20V28a8,8,0,0,1,2-6,8,8,0,0,1,12,0,8,8,0,0,1,2,6v79Z"/></g><g id="g378"><path id="path380" class="cls-1" d="M91,107h20L128,0H109l-7,52H99L92,0H73Z"/></g><g id="g382"><path id="path384" class="cls-1" d="M28,0A27,27,0,0,0,8,8,27,27,0,0,0,0,28V79A27,27,0,0,0,8,99a27,27,0,0,0,20,8,27,27,0,0,0,20-8,27,27,0,0,0,8-20V73H36v6a8,8,0,0,1-2,6,9,9,0,0,1-12,0,8,8,0,0,1-2-6V28a8,8,0,0,1,2-6,9,9,0,0,1,12,0,8,8,0,0,1,2,6v7a9,9,0,0,1-2,6l-4,2L23,63h5a27,27,0,0,0,20-8,27,27,0,0,0,8-20V28A27,27,0,0,0,48,8,27,27,0,0,0,28,0"/></g><g id="g386"><path id="path388" class="cls-1" d="M179,79a6,6,0,0,1-2,4,6,6,0,0,1-9,0,6,6,0,0,1-2-4V28a6,6,0,0,1,2-4l4-2,4,2a6,6,0,0,1,2,4V79ZM193,8a28,28,0,0,0-40,0,27,27,0,0,0-8,20V79a28,28,0,0,0,48,20,27,27,0,0,0,8-20V28a27,27,0,0,0-8-20"/></g><g id="g390"><path id="path392" class="cls-1" d="M324,79a6,6,0,0,1-2,4,6,6,0,0,1-9,0,6,6,0,0,1-2-4V28a6,6,0,0,1,2-4l4-2,4,2a6,6,0,0,1,2,4V79ZM338,8a28,28,0,0,0-40,0,27,27,0,0,0-8,20V79a28,28,0,0,0,56,0V28a27,27,0,0,0-8-20"/></g></svg>