<svg xmlns="http://www.w3.org/2000/svg" viewBox="0 0 491.3 107.1"><style>.e9-w{fill:#FFFFFF;} .e9-g{fill:#3BB3B6;}</style><g id="g366"><path id="path368" class="e9-w" d="M435.2 72.9V79c0 15.5 12.5 28 28 28s28-12.5 28-28V28c.1-7.4-2.9-14.6-8.2-19.8-10.8-10.9-28.3-11-39.2-.2l-.3.3c-5.3 5.2-8.3 12.3-8.2 19.7v7.3c-.1 7.5 2.9 14.7 8.2 19.8 5.2 5.3 12.4 8.3 19.8 8.2h4.5l-6.5-19.6c-1.6 0-3-.7-4-1.9-1.6-1.8-2.5-4.1-2.5-6.5V28c0-2.3.8-4.4 2.5-6 3.3-3.3 8.6-3.3 12 0 1.6 1.6 2.5 3.7 2.5 6v51c0 2.3-.9 4.4-2.5 6-3.3 3.3-8.6 3.3-12 0-1.6-1.6-2.5-3.7-2.5-6v-6.1h-19.6z"/></g><g id="g370"><path id="path372" class="e9-w" d="M380.8 107.1h20L418.6 0h-19.5L392 51.9h-2.3L382.5 0H363l17.8 107.1z"/></g><g id="g374"><path id="path376" class="e9-g" d="M254.1 107.1h19.6V28c.1-7.4-2.9-14.6-8.2-19.7-10.7-10.9-28.3-11.1-39.2-.3l-.3.3c-5.4 5.2-8.4 12.3-8.3 19.8v79.1h19.6V28c0-2.3.9-4.4 2.5-6 3.3-3.3 8.6-3.3 11.9 0 1.6 1.6 2.5 3.7 2.5 6l-.1 79.1z"/></g><g id="g378"><path id="path380" class="e9-w" d="M90.5 107.1h19.9L128.3 0h-19.5l-7.2 51.9h-2.3L92.2 0H72.7l17.8 107.1z"/></g><g id="g382"><path id="path384" class="e9-w" d="M28 0C20.6-.1 13.5 2.9 8.3 8.2 2.9 13.4-.1 20.6 0 28v51c-.1 7.4 2.9 14.6 8.2 19.8 5.2 5.4 12.3 8.4 19.8 8.3 7.4.1 14.6-2.9 19.8-8.2 5.4-5.2 8.3-12.4 8.2-19.8V73H36.5v6c0 2.2-.9 4.4-2.5 5.9-3.3 3.3-8.7 3.3-12 0-1.6-1.6-2.5-3.7-2.5-6V28c0-2.3.8-4.4 2.5-6 3.3-3.3 8.7-3.3 12 0 1.6 1.6 2.5 3.7 2.5 6v7.3c0 2.4-.8 4.7-2.5 6.5-1 1.2-2.4 1.9-4 2l-6.5 19.6H28c7.4.1 14.6-2.9 19.8-8.2 5.4-5.2 8.3-12.4 8.2-19.9V28c.1-7.4-2.9-14.5-8.2-19.7C42.6 2.9 35.5-.1 28 0"/></g><g id="g386"><path id="path388" class="e9-w" d="M179.1 79c0 1.6-.6 3.2-1.8 4.4-2.4 2.4-6.3 2.4-8.7 0-1.2-1.1-1.8-2.7-1.8-4.4V28c0-3.4 2.8-6.2 6.2-6.1 1.6 0 3.1.6 4.3 1.8 1.2 1.1 1.8 2.7 1.8 4.4V79zm13.6-70.8c-10.8-10.9-28.3-11-39.2-.2l-.3.3c-5.3 5.2-8.3 12.3-8.2 19.7v51c0 15.5 12.6 28 28 28 7.4 0 14.5-3 19.8-8.2 5.3-5.2 8.3-12.3 8.2-19.7V28c.1-7.5-2.9-14.6-8.3-19.8"/></g><g id="g390"><path id="path392" class="e9-w" d="M324.5 79c0 1.6-.6 3.2-1.8 4.4-2.4 2.4-6.3 2.4-8.7 0-1.2-1.1-1.8-2.7-1.8-4.4V28c0-3.4 2.8-6.2 6.2-6.1 1.6 0 3.2.6 4.3 1.8 1.2 1.1 1.8 2.7 1.8 4.4V79zM338 8.2c-10.8-10.9-28.3-11-39.2-.2l-.3.3c-5.3 5.2-8.3 12.3-8.2 19.7v51c0 15.5 12.5 28 28 28s28-12.5 28-28V28c.1-7.4-2.9-14.6-8.3-19.8"/></g></svg>
