<svg id="Layer_1" xmlns="http://www.w3.org/2000/svg" viewBox="0 0 743.3 741.7"><style>.st0{display:none;fill:#FFFFFF;stroke:#000000;stroke-miterlimit:10;} .st1{fill:none;stroke:#92D0D4;stroke-miterlimit:10;} .st2{fill:#92D0D4;stroke:#92D0D4;stroke-miterlimit:10;}</style><circle class="st0" cx="361.5" cy="368.3" r="362.2"/><path class="st1" d="M360.3 3.7l-78 8.5-46.4 13.4-86.6 47.6-36.6 32.9L53 185.4l-41.5 80.5-6.1 28-1.2 111v20.7l7.3 32.9 40.3 92.7 51.2 75.6 87.8 52.5 26.8 11 86.6 39 25.6 9.7 36.6-2.4 129.3-34.2 39-14.6 86.6-69.5 28-28 47.6-83 19.5-42.7 24.4-71.9-2.5-35.4-3.6-29.2-23.2-68.3-34.1-65.9-15.9-29.3-67.1-79.2-15.8-12.2-39-23.2-81.7-26.8-67.1-18.3z"/><circle class="st2" cx="390.9" cy="4.8" r="3.7"/><circle class="st2" cx="148.5" cy="73.5" r="3.7"/><circle class="st2" cx="661.5" cy="164.6" r="3.7"/><circle class="st2" cx="649.3" cy="590.3" r="3.7"/><circle class="st2" cx="740.6" cy="392.5" r="2.2"/><circle class="st2" cx="711.5" cy="260.9" r="2.2"/><circle class="st2" cx="535.3" cy="686.8" r="3.7"/><circle class="st2" cx="103" cy="626.8" r="3.7"/><circle class="st2" cx="4.2" cy="427" r="3.7"/><circle class="st2" cx="368.3" cy="735.4" r="2.2"/><circle class="st2" cx="191.1" cy="679.1" r="2.2"/><circle class="st2" cx="112.7" cy="106.1" r="2.2"/><circle class="st2" cx="235.9" cy="25.6" r="2.2"/><circle class="st2" cx="52.9" cy="185.5" r="3.2"/><circle class="st2" cx="5.4" cy="293.9" r="3.2"/><circle class="st2" cx="11.7" cy="267" r="3.7"/><circle class="st2" cx="51.8" cy="551.2" r="2.2"/><circle class="st2" cx="329.8" cy="739" r="2.2"/><circle class="st2" cx="625" cy="614.9" r="2.2"/><circle class="st2" cx="697.2" cy="506.2" r="2.2"/><circle class="st2" cx="539.6" cy="50" r="2.2"/><circle class="st2" cx="11.5" cy="458.5" r="3.2"/><circle class="st2" cx="495.7" cy="702.4" r="3.2"/><circle class="st2" cx="734.7" cy="328.1" r="3.2"/><circle class="st2" cx="593.7" cy="84.7" r="3.2"/><circle class="st2" cx="360.3" cy="3.7" r="3.2"/><circle class="st2" cx="282.3" cy="12.7" r="3.2"/></svg>