<svg xmlns="http://www.w3.org/2000/svg" width="258.2" height="226.9" viewBox="0 0 258.2 226.9">
  <title>Evonove logo</title>
  <path fill="#242528" d="M139.6 154.4v12.9c0 32.8 26.5 59.3 59.3 59.3s59.3-26.5 59.3-59.3v-108c.2-15.7-6.1-30.9-17.4-41.9-22.8-23.1-60.1-23.1-83.2-.2l-.4.4c-11.2 11-17.6 26.1-17.6 41.7v15.5c-.2 15.7 6.1 30.9 17.4 41.9 11 11.2 26.3 17.6 41.9 17.4h9.7l-13.8-41.5c-3.2 0-6.4-1.5-8.5-4-3.4-3.8-5.3-8.7-5.3-13.8V59.3c0-4.9 1.9-9.3 5.3-12.7 7-6.8 18.2-6.8 25.2 0 3.4 3.4 5.3 7.8 5.3 12.7v108c0 4.9-1.9 9.3-5.3 12.7-7 6.8-18.2 6.8-25.2 0-3.4-3.4-5.3-7.8-5.3-12.7v-12.9h-41.4zM59.3 0C43.6-.2 28.6 6.1 17.6 17.4 6.1 28.4-.2 43.4 0 59.3v108c-.2 15.7 6.1 30.9 17.4 41.9 11 11.4 26.1 17.8 41.9 17.6 15.7.2 30.9-6.1 41.9-17.4 11.2-11 17.6-26.3 17.4-41.9v-13.1H77.3v12.9c0 4.9-1.9 9.3-5.3 12.7-7 7-18.4 7-25.4 0-3.4-3.4-5.3-7.8-5.3-12.7v-108c0-4.9 1.9-9.3 5.3-12.7 7-7 18.4-7 25.4 0 3.4 3.4 5.3 8.1 5.1 12.7v15.5c.2 5.1-1.7 10-5.1 13.8-2.1 2.5-5.3 4-8.5 4l-13.8 41.5h9.5c15.7.2 30.9-6.1 41.9-17.4 11.2-11 17.6-26.3 17.4-41.9V59.3c.2-15.7-6.1-30.7-17.4-41.7C90.3 6.1 75.2-.2 59.3 0"/>
</svg>
