<svg viewBox="0 0 491.3 107.1" width="300px">
  <title>Evonove's logo</title>
  <path fill="#FFF" d="M435.2 72.9V79c0 15.5 12.5 28 28 28s28-12.5 28-28V28c.1-7.4-2.9-14.6-8.2-19.8-10.8-10.9-28.4-10.9-39.3-.1l-.2.2c-5.3 5.2-8.3 12.3-8.3 19.7v7.3c-.1 7.4 2.9 14.6 8.2 19.8 5.2 5.3 12.4 8.3 19.8 8.2h4.6l-6.5-19.6c-1.5 0-3-.7-4-1.9-1.6-1.8-2.5-4.1-2.5-6.5V28c0-2.3.9-4.4 2.5-6 3.3-3.2 8.6-3.2 11.9 0 1.6 1.6 2.5 3.7 2.5 6v51c0 2.3-.9 4.4-2.5 6-3.3 3.2-8.6 3.2-11.9 0-1.6-1.6-2.5-3.7-2.5-6v-6.1h-19.6zM380.8 107.1h19.9L418.6 0h-19.5l-7.2 51.9h-2.3L382.5 0H363l17.8 107.1z"/>
  <path fill="#3BB3B6" d="M254.1 107.1h19.6V28c.1-7.4-2.9-14.5-8.2-19.7-10.7-10.9-28.2-11.1-39.2-.4l-.3.3c-5.4 5.2-8.5 12.3-8.4 19.8v79.1h19.6V28c0-2.3.9-4.4 2.5-6 3.3-3.2 8.6-3.2 11.9 0 1.6 1.6 2.5 3.7 2.5 6v79.1z"/>
  <path fill="#FFF" d="M90.5 107.1h19.9L128.3 0h-19.5l-7.2 51.9h-2.2L92.2 0H72.7l17.8 107.1zM28 0C20.6-.1 13.5 2.9 8.3 8.2 2.9 13.4-.1 20.5 0 28v51c-.1 7.4 2.9 14.6 8.2 19.8 5.2 5.4 12.3 8.4 19.8 8.3 7.4.1 14.6-2.9 19.8-8.2 5.3-5.2 8.3-12.4 8.2-19.8v-6.2H36.5V79c0 2.3-.9 4.4-2.5 6-3.3 3.3-8.7 3.3-12 0-1.6-1.6-2.5-3.7-2.5-6V28c0-2.3.9-4.4 2.5-6 3.3-3.3 8.7-3.3 12 0 1.6 1.6 2.5 3.8 2.4 6v7.3c.1 2.4-.8 4.7-2.4 6.5-1 1.2-2.5 1.9-4 1.9l-6.5 19.6H28c7.4.1 14.6-2.9 19.8-8.2 5.3-5.2 8.3-12.4 8.2-19.8V28c.1-7.4-2.9-14.5-8.2-19.7C42.6 2.9 35.5-.1 28 0M179.1 79.1c0 1.7-.6 3.3-1.8 4.4-2.4 2.4-6.3 2.4-8.7 0-1.2-1.1-1.8-2.7-1.8-4.4V28c0-3.4 2.8-6.2 6.3-6.1 1.6 0 3.1.6 4.2 1.7 1.2 1.1 1.8 2.7 1.8 4.4v51.1zm13.6-70.9c-10.8-10.9-28.4-10.9-39.3-.1l-.2.2c-5.3 5.2-8.3 12.3-8.3 19.7v51c.1 15.5 12.6 28 28.1 27.9 7.4 0 14.5-3 19.7-8.2 5.3-5.1 8.3-12.2 8.3-19.6V28c.1-7.5-2.9-14.6-8.3-19.8M324.5 79.1c0 1.7-.6 3.3-1.8 4.4-2.4 2.4-6.3 2.4-8.7 0-1.2-1.1-1.8-2.7-1.8-4.4V28c0-3.4 2.8-6.2 6.3-6.1 1.6 0 3.1.6 4.2 1.7 1.2 1.1 1.8 2.7 1.8 4.4v51.1zM338 8.2c-10.8-10.9-28.3-11-39.2-.2l-.3.3c-5.3 5.2-8.3 12.3-8.2 19.7v51c0 15.5 12.5 28 28 28s28-12.5 28-28V28c.1-7.5-2.9-14.6-8.3-19.8"/>
</svg>
