<svg id="Layer_1" data-name="Layer 1" xmlns="http://www.w3.org/2000/svg" viewBox="0 0 491.3 107.1"><defs><style>.cls-1{fill:#333;}.cls-2{fill:#3bb3b6;}</style></defs><title>Untitled-1</title><g id="g366"><path id="path368" class="cls-1" d="M435.2 72.9V79a28 28 0 0 0 56 0V28A27 27 0 0 0 483 8.2a27.8 27.8 0 0 0-39.5.1 27.1 27.1 0 0 0-8.3 19.7v7.3a27 27 0 0 0 8.2 19.8 27.2 27.2 0 0 0 19.8 8.2h4.6l-6.5-19.6a5.2 5.2 0 0 1-4-1.9 9.3 9.3 0 0 1-2.5-6.5V28a8.1 8.1 0 0 1 2.5-6 8.5 8.5 0 0 1 11.9 0 8.2 8.2 0 0 1 2.5 6v51a8.2 8.2 0 0 1-2.5 6 8.5 8.5 0 0 1-11.9 0 8.2 8.2 0 0 1-2.5-6v-6.1h-19.6z"/></g><g id="g370"><path id="path372" class="cls-1" d="M380.8 107.1h19.9L418.6 0h-19.5l-7.2 51.9h-2.3L382.5 0H363z"/></g><g id="g374"><path id="path376" class="cls-2" d="M254.1 107.1h19.6V28a27.1 27.1 0 0 0-8.2-19.7 27.7 27.7 0 0 0-39.5-.1 27 27 0 0 0-8.4 19.8v79.1h19.6V28a8.2 8.2 0 0 1 2.5-6 8.5 8.5 0 0 1 11.9 0 8.2 8.2 0 0 1 2.5 6v79.1z"/></g><g id="g378"><path id="path380" class="cls-1" d="M90.5 107.1h19.9L128.3 0h-19.5l-7.2 51.9h-2.2L92.2 0H72.7z"/></g><g id="g382"><path id="path384" class="cls-1" d="M28 0A27.1 27.1 0 0 0 8.3 8.2 27 27 0 0 0 0 28v51a27.2 27.2 0 0 0 8.2 19.8 27.1 27.1 0 0 0 19.8 8.3 27.2 27.2 0 0 0 19.8-8.2A27 27 0 0 0 56 79.1v-6.2H36.5V79a8.2 8.2 0 0 1-2.5 6 8.5 8.5 0 0 1-12 0 8.2 8.2 0 0 1-2.5-6V28a8.2 8.2 0 0 1 2.5-6 8.5 8.5 0 0 1 12 0 8.2 8.2 0 0 1 2.4 6v7.3a9.3 9.3 0 0 1-2.4 6.5 5.2 5.2 0 0 1-4 1.9l-6.5 19.6H28a27.2 27.2 0 0 0 19.8-8.2A27 27 0 0 0 56 35.3V28a27.1 27.1 0 0 0-8.2-19.7A27 27 0 0 0 28 0"/></g><g id="g386"><path id="path388" class="cls-1" d="M179.1 79.1a5.9 5.9 0 0 1-1.8 4.4 6.2 6.2 0 0 1-8.7 0 5.9 5.9 0 0 1-1.8-4.4V28a6.2 6.2 0 0 1 10.5-4.4 5.9 5.9 0 0 1 1.8 4.4v51zm13.6-70.9a27.8 27.8 0 0 0-39.5.1 27.1 27.1 0 0 0-8.3 19.7v51a28 28 0 0 0 47.8 19.7 27.2 27.2 0 0 0 8.3-19.6V28a27 27 0 0 0-8.3-19.8"/></g><g id="g390"><path id="path392" class="cls-1" d="M324.5 79.1a5.9 5.9 0 0 1-1.8 4.4 6.2 6.2 0 0 1-8.7 0 5.9 5.9 0 0 1-1.8-4.4V28a6.2 6.2 0 0 1 10.5-4.4 5.9 5.9 0 0 1 1.8 4.4v51zM338 8.2a27.7 27.7 0 0 0-39.5.1 27.1 27.1 0 0 0-8.2 19.7v51a28 28 0 0 0 56 0V28A27 27 0 0 0 338 8.2"/></g></svg>
