<svg id="Layer_1" data-name="Layer 1" xmlns="http://www.w3.org/2000/svg" viewBox="0 0 491.26 107.08"><defs><style>.cls-1{fill:#fff;}.cls-2{fill:#3bb3b6;}</style></defs><title>evonove-logo-white</title><g id="g366"><path id="path368" class="cls-1" d="M435.23 72.91v6.14a28 28 0 0 0 56 0V28A27 27 0 0 0 483 8.24a27.75 27.75 0 0 0-39.52.06 27.13 27.13 0 0 0-8.25 19.7v7.29a27 27 0 0 0 8.23 19.85 27.17 27.17 0 0 0 19.79 8.17h4.55l-6.54-19.6a5.16 5.16 0 0 1-4-1.94 9.29 9.29 0 0 1-2.47-6.46V28a8.13 8.13 0 0 1 2.47-6 8.49 8.49 0 0 1 11.95 0 8.19 8.19 0 0 1 2.46 6v51a8.21 8.21 0 0 1-2.46 6 8.51 8.51 0 0 1-11.95 0 8.16 8.16 0 0 1-2.47-6v-6.09h-19.56z"/></g><g id="g370"><path id="path372" class="cls-1" d="M380.81 107.08h19.95L418.59 0h-19.52l-7.15 51.9h-2.26L382.49 0H363z"/></g><g id="g374"><path id="path376" class="cls-2" d="M254.07 107.08h19.59V28a27.11 27.11 0 0 0-8.24-19.73 27.74 27.74 0 0 0-39.51-.06 27 27 0 0 0-8.3 19.79v79.06h19.59V28a8.2 8.2 0 0 1 2.46-6 8.49 8.49 0 0 1 11.94 0 8.18 8.18 0 0 1 2.47 6v79.06z"/></g><g id="g378"><path id="path380" class="cls-1" d="M90.52 107.08h19.93L128.31 0h-19.54l-7.16 51.9h-2.26L92.2 0H72.67z"/></g><g id="g382"><path id="path384" class="cls-1" d="M28 0A27.13 27.13 0 0 0 8.29 8.24 27 27 0 0 0 0 28v51a27.21 27.21 0 0 0 8.22 19.79A27.1 27.1 0 0 0 28 107.08a27.21 27.21 0 0 0 19.81-8.18A27 27 0 0 0 56 79.05v-6.14H36.45v6.14A8.19 8.19 0 0 1 34 85a8.52 8.52 0 0 1-12 0 8.2 8.2 0 0 1-2.46-6V28A8.19 8.19 0 0 1 22 22a8.51 8.51 0 0 1 12 0 8.18 8.18 0 0 1 2.45 6v7.29A9.32 9.32 0 0 1 34 41.78a5.2 5.2 0 0 1-4 1.95l-6.54 19.6H28a27.17 27.17 0 0 0 19.79-8.17A27 27 0 0 0 56 35.31V28a27.15 27.15 0 0 0-8.19-19.71A27 27 0 0 0 28 0"/></g><g id="g386"><path id="path388" class="cls-1" d="M179.11 79.05a5.92 5.92 0 0 1-1.79 4.36 6.16 6.16 0 0 1-8.72 0 5.88 5.88 0 0 1-1.78-4.36V28a6.17 6.17 0 0 1 10.5-4.36 5.94 5.94 0 0 1 1.79 4.36v51zm13.58-70.81a27.75 27.75 0 0 0-39.52.06 27.13 27.13 0 0 0-8.23 19.7v51a28 28 0 0 0 47.81 19.74A27.17 27.17 0 0 0 201 79.05V28a27 27 0 0 0-8.29-19.78"/></g><g id="g390"><path id="path392" class="cls-1" d="M324.45 79.05a5.94 5.94 0 0 1-1.78 4.36 6.16 6.16 0 0 1-8.72 0 5.89 5.89 0 0 1-1.78-4.36V28a6.16 6.16 0 0 1 10.49-4.36 5.92 5.92 0 0 1 1.8 4.36v51zM338 8.24a27.74 27.74 0 0 0-39.51.06 27.13 27.13 0 0 0-8.2 19.7v51a28 28 0 0 0 56 0V28A27 27 0 0 0 338 8.24"/></g></svg>