<svg id="Layer_1" data-name="Layer 1" xmlns="http://www.w3.org/2000/svg" viewBox="0 0 166.61 569.46"><defs><style>.cls-1{fill-rule:evenodd;}</style></defs><title>man</title><path class="cls-1" d="M6.63 550.25c-1.12 2.22-2.79 4.74-5.07 5.88 0-2.25 2.66-6.92 5.07-5.88m7.39-13.1l.13-.69c-2.4 2-9 8.75-7.57 11.43 2.6-2.44 7.4-7 7.44-10.75M61.48 10.33c-6.34 5.27-5 13.73-6.53 20.67.81 2.1-3.39 7-3.43 10.07a24.8 24.8 0 0 0 3.69 13c1.31 2.19 1.19.38 1.55 3a22.51 22.51 0 0 1-.37 4.46c-.3 3.51-.06 7.05-.35 10.55-.34 4.33-2.74 9.12-5.07 12.75-1.39 2.13-2.06 1.49-4.3.56-3.57-1.5-4.84-2.59-6.69 1a51.84 51.84 0 0 0-2.93 7.59c0 1-9 5.18-10.06 6.08-3.95 3.17-6.09 9.53-8.15 14-1.4 3.06-3.35 6.84-3.9 10.2-.37 2.2.52 3.89-.05 6.32-1 4.33 1.8 9.44 2.5 13.71.46 2.86-.32 4 1.68 6.44 1.28 1.58 3.9 3.44 4.67 5.35.83 2.07-.11 3.8.36 5.71.54 2.14 2.19 3.87 2.94 6 1.61 4.55 1.21 9.48 3.1 13.72 2.18 4.91 2.63 9.35 3.4 14.82.78 5.63 3.08 11 3.89 16.56s.28 11.82.51 17.51c.28 6.72 1.33 12.13.32 18.8-.9 6-1.44 12-1.77 18.1-.31 5.4-1.12 11-.68 16.4.4 5.26-1.79 10.81-2.72 16.06-4.39 24.35-1.12 49.14-1.18 73.53 0 2.39 1.73 5 1.46 7.23s-1.54 4.43-2 6.67a75.81 75.81 0 0 0-1.42 14.46c0 4.74-4.73 7.8-3.59 12.21.59 2.29-1 3.94-2 5.81-1.33 2.51-.08 3.41.29 5.82s-1.88 5.14-1.73 7.91a27.26 27.26 0 0 1-.13 6.56c-.83 4.76-.94 9.53-1.65 14.32-1.72 11.67-1.66 24.37-2.25 36.19-.12 2.38 4.37 9.56 1.59 10.63-4.8 1.73-4.54 5.22-6.35 9.34-1.2 2.79-2.29 4.83-2.47 8.17-.19 3.66 5.24 1.57 7.27 2.52 0 2.57-3.37 6.21-4 9.16a17.34 17.34 0 0 1-2.49 5c-2.46 3.36-8 6.92-8.29 11.49-.17 2.72 1.57 1.68-.78 4-1.09 1.1-3.36 3.05-3.36 4.78 0 6.74 8.21-3.78 8.8-4.12-.13 7.78-3 17.23 8.69 17.69 6.83.27 15.83 1 22.36-1.47 6.77-2.37 2.62-9.4 2.26-13.94-.14-1.78 2-3.3 1-5-1.08-2.05-.2-3.74.5-5.67.93-2.57 2.22-5.29 3-8 1-3.52.22-2.94 3.17-4.45 4-2 4.12-6.35 1.9-9.74-3.4-5.21-3.33-7.51-.39-13.5 2.2-4.45 2-7-.07-11.39-1.2-2.52-2.6-5.54-1.23-8.2 3.16-6.14 4.14-13.7 4.6-20.48s5.43-12.5 5.15-19.45c-.13-3.26-1.46-6.65-.37-9.89.82-2.36 2.76-4.06 3.6-6.43 1.71-4.82 4.87-8.56 7.79-12.81 3.61-5.22-.82-14 0-19.93.78-5.15 2.5-13 5.7-17.13 1.67-2.16 4.48-11.68 7.16-11.79 1.9 5 1.45 10.56 3.86 15.65 2.13 4.46.91 6.82-.71 11.1s1.69 8.33.93 12.23-.62 6.7-1.37 10.43c-.79 4 .85 8.81-.54 12.4-1.74 4.49-.63 12.51.27 17.15 1.1 5.36 1.1 10.74 1.73 16.23s2.35 8.88-1.36 13.5-1.62 10.47-2 15.78c-.25 3.54-1.2 6.48-.84 9.79.28 2.44.32 4.93 1.45 7.16.4.79 2.19 2.6 2.36 3.64.82 4.83-1.61 9.51.36 14.51 2.39 5.93 15.86 6.15 21 6.8 8.58 1.07 16.06 4.23 24.44 6.25 10.84 2.61 22.42 2.33 32.44-3 2.4-1.29-.79-5.69-1.26-7.38-.82-3.13-6.71-4.44-9.15-6.34-2.22-1.71-4.38-1-6.15-3.27a37 37 0 0 0-5-5.43c-3.56-3-7-6.13-10.79-8.82-4.11-3-7.62-3.23-7.68-9 0-1.54-.15-4.21-.86-5.34s1.25-3.14 1.09-4.56c-.24-2.5-.61-4.15.28-6.64 1.51-4.15 1.34-9.2 2.31-13.57 2.84-12.85 5.44-25.64 7.83-38.58.85-4.6 4.92-13.76 1.84-18-2.46-3.35-3.16-1.41-1.66-6.37 3.52-11.48 5.41-23.71 7.78-35.47 4.72-23.42 10-49.64 6.23-73.48-1-6.42-3-12.74-3.78-19.15-.17-1.35 1.3-1.7 1-3-.71-3.06-1.48-6.1-2.3-9.14-3.19-12-6.92-23.77-10.39-35.65-3.16-10.86-8.32-22.09-10.05-33.27-.45-3 9.61-.42 11.56-.38 3.23.07 9.44 0 12.24-1.79 3.52-2.24 2.41-11.82 1.41-15.12-1.29-4.22-4.66-7.27-6.36-11.27-3.33-7.62-7.76-17.48-14-23.57-3-3-1.87-7.39-4.89-11-1.63-2-.69-3.62-1.73-5.8-.66-1.41-2.44-2-3.07-3.17-2.67-5-6.12-13.29-13-12.33-10.74 1.55-4.1-17.05-8.7-21.21-.72-.65-13.18 1.61-12.52-1 1.6-6.38 7.09-9.76 9.85-15.71 2.35-5 4.49-10.95 7.34-15.69 2.38-3.85 4.91-7.29 6.76-11.19.6-1.23-.75-2.25.48-3.26s1.75-3.45 2.11-5.07c.49-2.36 3-10.85.73-12.61-1.76-1.39-2.06-6.4-2.42-8.5a13.09 13.09 0 0 0-3.81-7.16C103.49 7.43 96.56 1.74 91.26.83c-2.55-.4-5.91-1.55-8.42-.08-1.81 1-3.09 2.47-5.3 2.58-3.93.21-5.09 3-8.4 3.94-2.87.88-6.71 1.23-8.51 4"/></svg>