<svg xmlns="http://www.w3.org/2000/svg" width="56.693" height="56.693" viewBox="0 0 56.6934 56.6934"><path d="M38.958 26.384l14.625-9.86c0-1.167-1.088-2.004-1.703-2.004H35.186v9.724l3.4 2.14c.088.026.282.028.372 0z"/><path d="M39.25 30.003s-.526.32-.962 0l-3.102-2.13h-.002v13.215H50.94c1.4 0 2.645-.815 2.645-2.76V20.453s-14.86 9.87-14.334 9.55zM18.64 34.193c1.04 0 1.864-.47 2.473-1.406.608-.938.915-2.24.915-3.903 0-1.735-.295-3.085-.887-4.05-.59-.963-1.4-1.445-2.426-1.445-1.057 0-1.9.496-2.52 1.487-.623.992-.935 2.305-.935 3.938 0 1.658.31 2.97.933 3.932.62.966 1.438 1.446 2.446 1.446z"/><path d="M4 47.626l28.94 6.067V3.98L4 9.582v38.044zm9.922-25.032c1.227-1.634 2.85-2.45 4.874-2.45 1.91 0 3.456.78 4.634 2.344 1.18 1.564 1.77 3.625 1.77 6.185.002 2.63-.61 4.752-1.833 6.362-1.224 1.61-2.818 2.416-4.786 2.416-1.917 0-3.478-.78-4.686-2.34-1.206-1.56-1.81-3.59-1.81-6.097 0-2.646.612-4.785 1.838-6.42z"/></svg>