<?xml version="1.0" standalone="no"?>
<!DOCTYPE svg PUBLIC "-//W3C//DTD SVG 20010904//EN"
 "http://www.w3.org/TR/2001/REC-SVG-20010904/DTD/svg10.dtd">
<svg version="1.0" xmlns="http://www.w3.org/2000/svg"
 width="16.000000pt" height="16.000000pt" viewBox="0 0 16.000000 16.000000"
 preserveAspectRatio="xMidYMid meet">
<metadata>
Created by potrace 1.11, written by Peter Selinger 2001-2013
</metadata>
<g transform="translate(0.000000,16.000000) scale(0.001563,-0.001563)"
fill="#000000" stroke="none">
<path d="M690 9300 l0 -940 28 -5 c185 -37 312 -103 434 -227 128 -129 186
-241 223 -423 11 -55 13 -167 11 -525 -3 -498 -4 -507 -69 -652 -91 -204 -324
-403 -517 -443 -19 -3 -52 -11 -72 -16 l-38 -10 0 -939 0 -939 23 4 c12 2 63
6 112 10 216 14 425 58 651 136 672 231 1279 792 1568 1449 76 174 153 421
171 550 3 25 8 52 10 60 4 17 15 88 21 135 25 228 25 1190 -1 1384 -66 486
-255 927 -560 1307 -69 85 -107 126 -236 254 -467 465 -1038 724 -1686 764
l-73 5 0 -939z"/>
<path d="M6658 10235 c-2 -1 -34 -5 -73 -8 -93 -8 -287 -42 -388 -68 -355 -90
-689 -258 -987 -495 -116 -93 -360 -338 -453 -455 -78 -99 -237 -331 -237
-346 0 -5 -11 -25 -25 -46 -14 -20 -23 -37 -20 -37 4 0 -2 -12 -13 -27 -29
-42 -116 -253 -156 -378 -38 -117 -80 -294 -91 -385 -4 -30 -9 -64 -11 -75
-28 -138 -27 -1270 1 -1424 1 -9 6 -38 9 -64 4 -27 9 -59 12 -70 2 -12 6 -34
9 -49 17 -92 75 -300 102 -368 3 -8 7 -19 9 -25 19 -73 143 -323 226 -456 178
-284 472 -594 760 -800 63 -44 262 -165 333 -201 114 -58 324 -140 430 -168
17 -5 55 -15 85 -23 58 -16 244 -52 320 -62 114 -14 239 -19 540 -19 284 -1
325 1 322 14 -2 8 -35 116 -74 240 -38 124 -78 252 -88 285 -10 33 -32 105
-50 160 -17 55 -38 123 -47 150 -14 50 -56 183 -158 510 -74 236 -131 422
-146 472 -12 44 -8 41 -107 58 -61 10 -190 61 -247 97 -210 135 -345 339 -379
578 -8 50 -8 866 -1 920 10 74 43 188 71 243 87 173 258 331 434 401 177 71
431 66 614 -11 226 -95 403 -302 467 -548 l21 -80 1 -2520 c0 -1386 -3 -2548
-7 -2582 -35 -321 -285 -597 -611 -678 -76 -19 -237 -24 -323 -11 -340 51
-633 356 -667 694 -3 31 -6 200 -6 374 l0 318 -940 0 -940 0 5 -418 c2 -229 7
-435 10 -457 3 -22 8 -62 11 -90 5 -42 14 -94 41 -242 10 -55 76 -269 109
-352 87 -222 221 -463 352 -631 323 -415 729 -727 1168 -897 50 -19 99 -38
110 -43 113 -46 392 -105 595 -127 87 -10 476 -9 570 0 464 47 898 212 1270
485 412 303 755 733 937 1178 64 156 107 299 142 469 20 102 25 135 39 260 10
94 9 5328 -1 5430 -11 118 -25 206 -52 330 -3 11 -7 31 -10 44 -12 63 -62 217
-103 321 -161 409 -415 756 -792 1085 -170 148 -450 323 -660 413 -149 63
-369 133 -497 157 -58 10 -200 34 -248 40 -49 7 -510 16 -517 10z"/>
<path d="M1389 2967 c0 -166 -2 -329 -5 -362 -22 -271 -180 -506 -433 -643
-38 -21 -176 -73 -191 -72 -3 0 -20 -3 -37 -6 l-33 -6 0 -939 0 -938 68 4
c105 7 182 15 242 25 30 5 73 12 95 15 159 23 454 119 635 207 368 177 651
402 959 763 135 159 296 431 386 655 41 100 107 307 119 373 2 12 7 33 10 47
11 49 32 173 41 240 13 109 19 288 19 600 l1 335 -938 2 -937 1 -1 -301z"/>
</g>
</svg>
